<mxfile host="app.diagrams.net" modified="2023-10-26T00:46:46.220Z" agent="Mozilla/5.0 (Macintosh; Intel Mac OS X 10_15_7) AppleWebKit/537.36 (KHTML, like Gecko) Chrome/118.0.0.0 Safari/537.36 Edg/118.0.2088.69" etag="eGqTx0W8hduyGOxwCaFr" version="22.0.8" type="github">
  <diagram id="C5RBs43oDa-KdzZeNtuy" name="Page-1">
    <mxGraphModel dx="1826" dy="766" grid="0" gridSize="10" guides="1" tooltips="1" connect="1" arrows="1" fold="1" page="0" pageScale="1" pageWidth="827" pageHeight="1169" background="#000000" math="0" shadow="0">
      <root>
        <mxCell id="WIyWlLk6GJQsqaUBKTNV-0" />
        <mxCell id="WIyWlLk6GJQsqaUBKTNV-1" parent="WIyWlLk6GJQsqaUBKTNV-0" />
        <mxCell id="G8366CzOLdXY6KI_NMV_-10" value="" style="shape=ext;double=1;rounded=0;whiteSpace=wrap;html=1;dashed=1;fillColor=#000000;strokeColor=#FF3333;" vertex="1" parent="WIyWlLk6GJQsqaUBKTNV-1">
          <mxGeometry x="207" y="168" width="482" height="420" as="geometry" />
        </mxCell>
        <mxCell id="ffdQeMW7-1RAPBmSWfj5-20" style="edgeStyle=orthogonalEdgeStyle;rounded=0;orthogonalLoop=1;jettySize=auto;html=1;strokeColor=#D79B00;" parent="WIyWlLk6GJQsqaUBKTNV-1" target="ffdQeMW7-1RAPBmSWfj5-19" edge="1">
          <mxGeometry relative="1" as="geometry">
            <mxPoint x="222" y="372" as="sourcePoint" />
          </mxGeometry>
        </mxCell>
        <mxCell id="ffdQeMW7-1RAPBmSWfj5-5" style="edgeStyle=orthogonalEdgeStyle;rounded=0;orthogonalLoop=1;jettySize=auto;html=1;entryX=0;entryY=0.5;entryDx=0;entryDy=0;fillColor=#ffe6cc;strokeColor=#d79b00;" parent="WIyWlLk6GJQsqaUBKTNV-1" source="ffdQeMW7-1RAPBmSWfj5-0" target="ffdQeMW7-1RAPBmSWfj5-19" edge="1">
          <mxGeometry relative="1" as="geometry">
            <mxPoint x="102" y="372" as="targetPoint" />
          </mxGeometry>
        </mxCell>
        <mxCell id="ffdQeMW7-1RAPBmSWfj5-0" value="&lt;font color=&quot;#ffffff&quot;&gt;Sap ECC&lt;br&gt;&lt;/font&gt;" style="rounded=1;whiteSpace=wrap;html=1;fillColor=#09555B;strokeColor=#BAC8D3;" parent="WIyWlLk6GJQsqaUBKTNV-1" vertex="1">
          <mxGeometry x="-6" y="219" width="120" height="60" as="geometry" />
        </mxCell>
        <mxCell id="ffdQeMW7-1RAPBmSWfj5-6" style="edgeStyle=orthogonalEdgeStyle;rounded=0;orthogonalLoop=1;jettySize=auto;html=1;fillColor=#ffe6cc;strokeColor=#d79b00;entryX=0;entryY=0.5;entryDx=0;entryDy=0;" parent="WIyWlLk6GJQsqaUBKTNV-1" source="ffdQeMW7-1RAPBmSWfj5-1" target="ffdQeMW7-1RAPBmSWfj5-19" edge="1">
          <mxGeometry relative="1" as="geometry" />
        </mxCell>
        <mxCell id="ffdQeMW7-1RAPBmSWfj5-1" value="&lt;font color=&quot;#ffffff&quot;&gt;Sap ByDesign&lt;br&gt;&lt;/font&gt;" style="rounded=1;whiteSpace=wrap;html=1;fillColor=#09555B;strokeColor=#BAC8D3;" parent="WIyWlLk6GJQsqaUBKTNV-1" vertex="1">
          <mxGeometry x="-6" y="305" width="120" height="60" as="geometry" />
        </mxCell>
        <mxCell id="ffdQeMW7-1RAPBmSWfj5-7" style="edgeStyle=orthogonalEdgeStyle;rounded=0;orthogonalLoop=1;jettySize=auto;html=1;entryX=0;entryY=0.5;entryDx=0;entryDy=0;fillColor=#ffe6cc;strokeColor=#d79b00;" parent="WIyWlLk6GJQsqaUBKTNV-1" source="ffdQeMW7-1RAPBmSWfj5-2" target="ffdQeMW7-1RAPBmSWfj5-19" edge="1">
          <mxGeometry relative="1" as="geometry" />
        </mxCell>
        <mxCell id="ffdQeMW7-1RAPBmSWfj5-2" value="&lt;font color=&quot;#ffffff&quot;&gt;Sap Hana&lt;br&gt;&lt;/font&gt;" style="rounded=1;whiteSpace=wrap;html=1;fillColor=#09555B;strokeColor=#BAC8D3;" parent="WIyWlLk6GJQsqaUBKTNV-1" vertex="1">
          <mxGeometry x="-6" y="391" width="120" height="60" as="geometry" />
        </mxCell>
        <mxCell id="ffdQeMW7-1RAPBmSWfj5-8" style="edgeStyle=orthogonalEdgeStyle;rounded=0;orthogonalLoop=1;jettySize=auto;html=1;entryX=0;entryY=0.5;entryDx=0;entryDy=0;fillColor=#ffe6cc;strokeColor=#d79b00;" parent="WIyWlLk6GJQsqaUBKTNV-1" source="ffdQeMW7-1RAPBmSWfj5-3" target="ffdQeMW7-1RAPBmSWfj5-19" edge="1">
          <mxGeometry relative="1" as="geometry" />
        </mxCell>
        <mxCell id="ffdQeMW7-1RAPBmSWfj5-3" value="&lt;font color=&quot;#ffffff&quot;&gt;Quick Book&lt;br&gt;&lt;/font&gt;" style="rounded=1;whiteSpace=wrap;html=1;fillColor=#09555B;strokeColor=#BAC8D3;" parent="WIyWlLk6GJQsqaUBKTNV-1" vertex="1">
          <mxGeometry x="-6" y="477" width="120" height="60" as="geometry" />
        </mxCell>
        <mxCell id="ffdQeMW7-1RAPBmSWfj5-11" value="&lt;font color=&quot;#ffffff&quot;&gt;HIFOOD&lt;br&gt;&lt;/font&gt;" style="rounded=1;whiteSpace=wrap;html=1;fillColor=#09555B;strokeColor=#BAC8D3;" parent="WIyWlLk6GJQsqaUBKTNV-1" vertex="1">
          <mxGeometry x="830" y="223.5" width="120" height="60" as="geometry" />
        </mxCell>
        <mxCell id="ffdQeMW7-1RAPBmSWfj5-12" value="&lt;font color=&quot;#ffffff&quot;&gt;BARCODE&lt;br&gt;&lt;/font&gt;" style="rounded=1;whiteSpace=wrap;html=1;fillColor=#09555B;strokeColor=#BAC8D3;" parent="WIyWlLk6GJQsqaUBKTNV-1" vertex="1">
          <mxGeometry x="830" y="302.5" width="120" height="60" as="geometry" />
        </mxCell>
        <mxCell id="ffdQeMW7-1RAPBmSWfj5-13" value="&lt;font color=&quot;#ffffff&quot;&gt;SJFOOD&lt;br&gt;&lt;/font&gt;" style="rounded=1;whiteSpace=wrap;html=1;fillColor=#09555B;strokeColor=#BAC8D3;" parent="WIyWlLk6GJQsqaUBKTNV-1" vertex="1">
          <mxGeometry x="830" y="381.5" width="120" height="60" as="geometry" />
        </mxCell>
        <mxCell id="ffdQeMW7-1RAPBmSWfj5-14" value="&lt;font color=&quot;#ffffff&quot;&gt;SJLINK&lt;br&gt;&lt;/font&gt;" style="rounded=1;whiteSpace=wrap;html=1;fillColor=#09555B;strokeColor=#BAC8D3;" parent="WIyWlLk6GJQsqaUBKTNV-1" vertex="1">
          <mxGeometry x="830" y="460.5" width="120" height="60" as="geometry" />
        </mxCell>
        <mxCell id="ffdQeMW7-1RAPBmSWfj5-24" style="edgeStyle=orthogonalEdgeStyle;rounded=0;orthogonalLoop=1;jettySize=auto;html=1;strokeColor=#D79B00;" parent="WIyWlLk6GJQsqaUBKTNV-1" source="ffdQeMW7-1RAPBmSWfj5-19" target="ffdQeMW7-1RAPBmSWfj5-21" edge="1">
          <mxGeometry relative="1" as="geometry" />
        </mxCell>
        <mxCell id="ffdQeMW7-1RAPBmSWfj5-25" value="YES" style="edgeLabel;html=1;align=center;verticalAlign=middle;resizable=0;points=[];" parent="ffdQeMW7-1RAPBmSWfj5-24" vertex="1" connectable="0">
          <mxGeometry x="0.1014" y="-1" relative="1" as="geometry">
            <mxPoint as="offset" />
          </mxGeometry>
        </mxCell>
        <mxCell id="ffdQeMW7-1RAPBmSWfj5-26" style="edgeStyle=orthogonalEdgeStyle;rounded=0;orthogonalLoop=1;jettySize=auto;html=1;entryX=0.5;entryY=0;entryDx=0;entryDy=0;strokeColor=#D79B00;" parent="WIyWlLk6GJQsqaUBKTNV-1" source="ffdQeMW7-1RAPBmSWfj5-19" target="ffdQeMW7-1RAPBmSWfj5-22" edge="1">
          <mxGeometry relative="1" as="geometry" />
        </mxCell>
        <mxCell id="ffdQeMW7-1RAPBmSWfj5-27" value="NO" style="edgeLabel;html=1;align=center;verticalAlign=middle;resizable=0;points=[];" parent="ffdQeMW7-1RAPBmSWfj5-26" vertex="1" connectable="0">
          <mxGeometry x="0.0725" y="3" relative="1" as="geometry">
            <mxPoint as="offset" />
          </mxGeometry>
        </mxCell>
        <mxCell id="ffdQeMW7-1RAPBmSWfj5-19" value="Cached Data？" style="rhombus;whiteSpace=wrap;html=1;fillColor=#a0522d;strokeColor=#6D1F00;fontColor=#ffffff;" parent="WIyWlLk6GJQsqaUBKTNV-1" vertex="1">
          <mxGeometry x="264" y="332" width="138" height="80" as="geometry" />
        </mxCell>
        <mxCell id="ffdQeMW7-1RAPBmSWfj5-28" style="edgeStyle=orthogonalEdgeStyle;rounded=0;orthogonalLoop=1;jettySize=auto;html=1;entryX=0.5;entryY=0;entryDx=0;entryDy=0;strokeColor=#D79B00;" parent="WIyWlLk6GJQsqaUBKTNV-1" source="ffdQeMW7-1RAPBmSWfj5-21" target="ffdQeMW7-1RAPBmSWfj5-23" edge="1">
          <mxGeometry relative="1" as="geometry" />
        </mxCell>
        <mxCell id="ffdQeMW7-1RAPBmSWfj5-38" style="edgeStyle=orthogonalEdgeStyle;rounded=0;orthogonalLoop=1;jettySize=auto;html=1;strokeColor=#D79B00;" parent="WIyWlLk6GJQsqaUBKTNV-1" source="ffdQeMW7-1RAPBmSWfj5-21" target="ffdQeMW7-1RAPBmSWfj5-37" edge="1">
          <mxGeometry relative="1" as="geometry" />
        </mxCell>
        <mxCell id="ffdQeMW7-1RAPBmSWfj5-21" value="Sapgateway DataBase" style="rounded=0;whiteSpace=wrap;html=1;fontSize=12;glass=0;strokeWidth=1;shadow=0;labelBackgroundColor=none;fillColor=#09555B;strokeColor=#BAC8D3;fontColor=#EEEEEE;" parent="WIyWlLk6GJQsqaUBKTNV-1" vertex="1">
          <mxGeometry x="273" y="223" width="120" height="40" as="geometry" />
        </mxCell>
        <mxCell id="ffdQeMW7-1RAPBmSWfj5-29" style="edgeStyle=orthogonalEdgeStyle;rounded=0;orthogonalLoop=1;jettySize=auto;html=1;entryX=0.5;entryY=1;entryDx=0;entryDy=0;strokeColor=#D79B00;" parent="WIyWlLk6GJQsqaUBKTNV-1" source="ffdQeMW7-1RAPBmSWfj5-22" target="ffdQeMW7-1RAPBmSWfj5-23" edge="1">
          <mxGeometry relative="1" as="geometry" />
        </mxCell>
        <mxCell id="ffdQeMW7-1RAPBmSWfj5-22" value="Sapconnector" style="rounded=0;whiteSpace=wrap;html=1;fontSize=12;glass=0;strokeWidth=1;shadow=0;labelBackgroundColor=none;fillColor=#09555B;strokeColor=#BAC8D3;fontColor=#EEEEEE;" parent="WIyWlLk6GJQsqaUBKTNV-1" vertex="1">
          <mxGeometry x="273" y="481" width="120" height="40" as="geometry" />
        </mxCell>
        <mxCell id="ffdQeMW7-1RAPBmSWfj5-30" style="edgeStyle=orthogonalEdgeStyle;rounded=0;orthogonalLoop=1;jettySize=auto;html=1;entryX=0;entryY=0.5;entryDx=0;entryDy=0;strokeColor=#D79B00;" parent="WIyWlLk6GJQsqaUBKTNV-1" source="ffdQeMW7-1RAPBmSWfj5-23" target="ffdQeMW7-1RAPBmSWfj5-11" edge="1">
          <mxGeometry relative="1" as="geometry" />
        </mxCell>
        <mxCell id="ffdQeMW7-1RAPBmSWfj5-31" style="edgeStyle=orthogonalEdgeStyle;rounded=0;orthogonalLoop=1;jettySize=auto;html=1;strokeColor=#D79B00;" parent="WIyWlLk6GJQsqaUBKTNV-1" source="ffdQeMW7-1RAPBmSWfj5-23" target="ffdQeMW7-1RAPBmSWfj5-12" edge="1">
          <mxGeometry relative="1" as="geometry" />
        </mxCell>
        <mxCell id="ffdQeMW7-1RAPBmSWfj5-32" style="edgeStyle=orthogonalEdgeStyle;rounded=0;orthogonalLoop=1;jettySize=auto;html=1;strokeColor=#D79B00;" parent="WIyWlLk6GJQsqaUBKTNV-1" source="ffdQeMW7-1RAPBmSWfj5-23" target="ffdQeMW7-1RAPBmSWfj5-13" edge="1">
          <mxGeometry relative="1" as="geometry" />
        </mxCell>
        <mxCell id="ffdQeMW7-1RAPBmSWfj5-34" style="edgeStyle=orthogonalEdgeStyle;rounded=0;orthogonalLoop=1;jettySize=auto;html=1;entryX=0;entryY=0.5;entryDx=0;entryDy=0;strokeColor=#D79B00;" parent="WIyWlLk6GJQsqaUBKTNV-1" source="ffdQeMW7-1RAPBmSWfj5-23" target="ffdQeMW7-1RAPBmSWfj5-14" edge="1">
          <mxGeometry relative="1" as="geometry" />
        </mxCell>
        <mxCell id="ffdQeMW7-1RAPBmSWfj5-23" value="Sapgateway API &amp;amp; SDK" style="rounded=0;whiteSpace=wrap;html=1;fontSize=12;glass=0;strokeWidth=1;shadow=0;labelBackgroundColor=none;fillColor=#09555B;strokeColor=#BAC8D3;fontColor=#EEEEEE;" parent="WIyWlLk6GJQsqaUBKTNV-1" vertex="1">
          <mxGeometry x="542" y="352" width="120" height="40" as="geometry" />
        </mxCell>
        <mxCell id="ffdQeMW7-1RAPBmSWfj5-37" value="&lt;font color=&quot;#ffffff&quot;&gt;大数据平台&lt;br&gt;&lt;/font&gt;" style="rounded=1;whiteSpace=wrap;html=1;fillColor=#09555B;strokeColor=#BAC8D3;" parent="WIyWlLk6GJQsqaUBKTNV-1" vertex="1">
          <mxGeometry x="273" y="65" width="120" height="60" as="geometry" />
        </mxCell>
        <mxCell id="G8366CzOLdXY6KI_NMV_-0" value="" style="endArrow=none;dashed=1;html=1;dashPattern=1 3;strokeWidth=2;rounded=0;" edge="1" parent="WIyWlLk6GJQsqaUBKTNV-1">
          <mxGeometry width="50" height="50" relative="1" as="geometry">
            <mxPoint x="374" y="403" as="sourcePoint" />
            <mxPoint x="424" y="353" as="targetPoint" />
          </mxGeometry>
        </mxCell>
        <mxCell id="G8366CzOLdXY6KI_NMV_-1" value="" style="endArrow=none;dashed=1;html=1;dashPattern=1 3;strokeWidth=2;rounded=0;" edge="1" parent="WIyWlLk6GJQsqaUBKTNV-1">
          <mxGeometry width="50" height="50" relative="1" as="geometry">
            <mxPoint x="374" y="403" as="sourcePoint" />
            <mxPoint x="424" y="353" as="targetPoint" />
          </mxGeometry>
        </mxCell>
        <mxCell id="G8366CzOLdXY6KI_NMV_-2" value="" style="endArrow=none;dashed=1;html=1;dashPattern=1 3;strokeWidth=2;rounded=0;" edge="1" parent="WIyWlLk6GJQsqaUBKTNV-1">
          <mxGeometry width="50" height="50" relative="1" as="geometry">
            <mxPoint x="374" y="403" as="sourcePoint" />
            <mxPoint x="424" y="353" as="targetPoint" />
          </mxGeometry>
        </mxCell>
        <mxCell id="G8366CzOLdXY6KI_NMV_-3" value="" style="endArrow=none;dashed=1;html=1;rounded=0;" edge="1" parent="WIyWlLk6GJQsqaUBKTNV-1">
          <mxGeometry width="50" height="50" relative="1" as="geometry">
            <mxPoint x="374" y="403" as="sourcePoint" />
            <mxPoint x="424" y="353" as="targetPoint" />
          </mxGeometry>
        </mxCell>
        <mxCell id="G8366CzOLdXY6KI_NMV_-4" value="" style="endArrow=none;dashed=1;html=1;rounded=0;" edge="1" parent="WIyWlLk6GJQsqaUBKTNV-1">
          <mxGeometry width="50" height="50" relative="1" as="geometry">
            <mxPoint x="374" y="403" as="sourcePoint" />
            <mxPoint x="424" y="353" as="targetPoint" />
          </mxGeometry>
        </mxCell>
        <mxCell id="G8366CzOLdXY6KI_NMV_-5" value="" style="endArrow=none;dashed=1;html=1;rounded=0;" edge="1" parent="WIyWlLk6GJQsqaUBKTNV-1">
          <mxGeometry width="50" height="50" relative="1" as="geometry">
            <mxPoint x="374" y="403" as="sourcePoint" />
            <mxPoint x="424" y="353" as="targetPoint" />
          </mxGeometry>
        </mxCell>
        <mxCell id="G8366CzOLdXY6KI_NMV_-6" value="" style="endArrow=none;dashed=1;html=1;rounded=0;" edge="1" parent="WIyWlLk6GJQsqaUBKTNV-1">
          <mxGeometry width="50" height="50" relative="1" as="geometry">
            <mxPoint x="374" y="403" as="sourcePoint" />
            <mxPoint x="424" y="353" as="targetPoint" />
          </mxGeometry>
        </mxCell>
        <mxCell id="G8366CzOLdXY6KI_NMV_-7" value="" style="endArrow=none;dashed=1;html=1;rounded=0;" edge="1" parent="WIyWlLk6GJQsqaUBKTNV-1">
          <mxGeometry width="50" height="50" relative="1" as="geometry">
            <mxPoint x="374" y="403" as="sourcePoint" />
            <mxPoint x="424" y="353" as="targetPoint" />
          </mxGeometry>
        </mxCell>
        <mxCell id="G8366CzOLdXY6KI_NMV_-8" value="" style="endArrow=none;dashed=1;html=1;rounded=0;" edge="1" parent="WIyWlLk6GJQsqaUBKTNV-1">
          <mxGeometry width="50" height="50" relative="1" as="geometry">
            <mxPoint x="374" y="403" as="sourcePoint" />
            <mxPoint x="424" y="353" as="targetPoint" />
          </mxGeometry>
        </mxCell>
        <mxCell id="G8366CzOLdXY6KI_NMV_-11" value="Text" style="text;html=1;strokeColor=none;fillColor=none;align=center;verticalAlign=middle;whiteSpace=wrap;rounded=0;" vertex="1" parent="WIyWlLk6GJQsqaUBKTNV-1">
          <mxGeometry x="407" y="333" width="60" height="30" as="geometry" />
        </mxCell>
        <mxCell id="G8366CzOLdXY6KI_NMV_-12" value="&lt;font color=&quot;#ffffff&quot; style=&quot;font-size: 23px;&quot;&gt;Sapgateway&lt;/font&gt;" style="text;html=1;strokeColor=none;fillColor=none;align=center;verticalAlign=middle;whiteSpace=wrap;rounded=0;fontSize=23;" vertex="1" parent="WIyWlLk6GJQsqaUBKTNV-1">
          <mxGeometry x="252" y="542" width="60" height="30" as="geometry" />
        </mxCell>
        <mxCell id="G8366CzOLdXY6KI_NMV_-13" style="edgeStyle=orthogonalEdgeStyle;rounded=0;orthogonalLoop=1;jettySize=auto;html=1;" edge="1" parent="WIyWlLk6GJQsqaUBKTNV-1" source="G8366CzOLdXY6KI_NMV_-12" target="G8366CzOLdXY6KI_NMV_-12">
          <mxGeometry relative="1" as="geometry" />
        </mxCell>
      </root>
    </mxGraphModel>
  </diagram>
</mxfile>
